# xmcd CD database file
#
# Track frame offsets:
#	150
#	22480
#	41237
#	58308
#	74745
#	88207
#	102356
#	124199
#	139368
#	151138
#
# Disc length: 2196 seconds
#
# Revision: 0
# Processed by: cddbd v1.5.2PL0 Copyright (c) Steve Scherf et al.
# Submitted via: CDex 1.70beta3
#
DISCID=a108920a
DTITLE=太田昌宏, 鈴木克人, 矢藤健一郎 - ジャズ・アレンジ Vol.10 [日本の名曲編 III]
DYEAR=1900
DGENRE=Jazz
TTITLE0=砂山
TTITLE1=出船
TTITLE2=背くらべ
TTITLE3=人形
TTITLE4=浜辺の歌
TTITLE5=仲良し小道
TTITLE6=春よ来い
TTITLE7=証城寺の狸囃子
TTITLE8=お菓子と娘
TTITLE9=あの町この町
EXTD=
EXTT0=
EXTT1=
EXTT2=
EXTT3=
EXTT4=
EXTT5=
EXTT6=
EXTT7=
EXTT8=
EXTT9=
PLAYORDER=
